Coordinates
version=1
nRows=13
nColumns=31
inDegrees=yes

Units are S.I. units (second, meters, Newtons, ...)
If the header above contains a line with 'inDegrees', this indicates whether rotational values are in degrees (yes) or radians (no).

endheader
time	bJoint_1	bJoint_3	bJoint_4	seatpos	slocangle	soarinout	sblpos	plocangle	poarinout	pblpos	hipangle	kneeangle	footangle	lbackangle	uarmleft_out	uarmleft_trn	uarmleft_up	se_inout	se_updown	handleleft_out	handleleft_trn	handleleft_up	uarmright_out	uarmright_trn	uarmright_up	pe_inout	pe_updown	handleright_out	handleright_trn	handleright_up
      0.02000000	      0.00000112	     -0.00000008	     -0.00000012	     -0.65487022	     82.20265562	     17.75831802	    -17.75831802	     81.71456110	     17.02997420	    -17.02997420	     23.61607175	    144.80052364	     78.41659540	     10.41579327	     11.30179036	    -71.82671846	    -30.51686472	      6.48607835	     -3.16524442	     10.55890556	     34.36006018	     30.75104239	     62.20721796	   -104.28548859	     25.66967094	     -1.17995876	     -9.43276656	     15.35935738	    -59.06356479	     48.33374481
      0.04000000	      0.00000114	     -0.00000008	     -0.00000012	     -0.65384255	     82.11951032	     17.75610947	    -17.75610947	     81.63863476	     17.03194412	    -17.03194412	     23.66410614	    144.67105712	     78.33516326	     10.38861179	     11.28489965	    -71.80461878	    -30.48164184	      6.37758911	     -2.93686965	     10.64383961	     34.43437793	     30.90860174	     62.21098254	   -104.19651382	     25.67809184	     -1.22068526	     -9.10463131	     15.26452877	    -59.05400869	     48.51621837
      0.06000000	      0.00000114	     -0.00000008	     -0.00000012	     -0.65207885	     82.04040486	     17.75511926	    -17.75511926	     81.56344618	     17.02868062	    -17.02868062	     23.74695678	    144.44869172	     78.19564851	     10.44413729	     10.97802923	    -71.47263376	    -30.56371255	      6.60508667	     -3.12543816	     10.76989512	     34.17672901	     30.78088921	     62.28726374	   -104.33493410	     25.94179722	     -1.23942105	     -9.16033891	     15.39162224	    -59.15338188	     48.67899642
      0.08000000	      0.00000111	     -0.00000008	     -0.00000012	     -0.65085654	     81.95770362	     17.75569070	    -17.75569070	     81.47192128	     17.03289102	    -17.03289102	     23.80467808	    144.29445709	     78.09913517	     10.43841120	     10.86226076	    -71.40216730	    -30.50822513	      6.55668543	     -3.16467516	     10.86656246	     34.19126551	     30.78065739	     62.30347546	   -104.43447868	     26.26417172	     -1.18188823	     -9.42723081	     15.60116945	    -59.20337840	     48.80843343
      0.10000000	      0.00000115	     -0.00000008	     -0.00000012	     -0.64985797	     81.87803712	     17.75437221	    -17.75437221	     81.39227012	     17.03191094	    -17.03191094	     23.85201585	    144.16837689	     78.02039274	     10.41126567	     10.88341281	    -71.43650797	    -30.45169811	      6.36809374	     -2.92374087	     10.96544495	     34.32407862	     30.93598787	     62.28294756	   -104.34782868	     26.29212297	     -1.22154067	     -9.18307513	     15.52459257	    -59.19546180	     48.96222751
      0.12000000	      0.00000108	     -0.00000008	     -0.00000012	     -0.64803959	     81.76842488	     17.74948623	    -17.74948623	     81.28420084	     17.02832020	    -17.02832020	     23.93863352	    143.93860725	     77.87724077	     10.42978889	     10.57377983	    -71.25084366	    -30.54976910	      6.45549161	     -2.94562970	     11.06007382	     34.24775530	     30.96040609	     61.70855077	   -104.73320595	     25.96408493	     -1.27839943	     -9.18591903	     16.16810143	    -59.48862703	     49.62606930
      0.14000000	      0.00000110	     -0.00000008	     -0.00000012	     -0.64702327	     81.69573177	     17.74858069	    -17.74858069	     81.20631093	     17.02666014	    -17.02666014	     23.98727727	    143.81008450	     77.79736178	     10.43323689	     10.33093898	    -71.03059983	    -30.54146946	      6.66999516	     -3.18107367	     11.08865419	     34.07562747	     30.87216314	     61.69951733	   -104.82818396	     26.26803752	     -1.23038890	     -9.53010636	     16.37127100	    -59.53404411	     49.69225910
      0.16000000	      0.00000117	     -0.00000008	     -0.00000012	     -0.64582816	     81.61018644	     17.75017923	    -17.75017923	     81.12543151	     17.03040345	    -17.03040345	     24.04468855	    143.65886025	     77.70354881	     10.41345287	     10.33051234	    -71.05656302	    -30.50760807	      6.46253910	     -2.92792227	     11.21188923	     34.21162531	     31.02124056	     61.74215743	   -104.76802994	     26.30863875	     -1.25262563	     -9.17026248	     16.30698912	    -59.53117031	     49.92077408
      0.18000000	      0.00000110	     -0.00000008	     -0.00000012	     -0.64480598	     81.52823390	     17.75662094	    -17.75662094	     81.03408531	     17.02591300	    -17.02591300	     24.09397184	    143.52943754	     77.62340938	     10.39055144	     10.22257048	    -71.01227892	    -30.42597281	      6.41173775	     -3.00723380	     11.28723265	     34.24600188	     31.01102348	     61.64096848	   -104.70198844	     26.40497096	     -1.30812997	     -9.20571533	     16.28038620	    -59.54606964	     49.97240044
      0.20000000	      0.00000113	     -0.00000008	     -0.00000012	     -0.64303901	     81.43701225	     17.75235812	    -17.75235812	     80.95427551	     17.03463005	    -17.03463005	     24.17954844	    143.30554394	     77.48509238	     10.43706345	      9.90441028	    -70.67394037	    -30.50394515	      6.66451401	     -3.17691042	     11.39312302	     33.98833950	     30.91553179	     61.65296768	   -104.81220785	     26.63111565	     -1.38914321	     -9.30290359	     16.34529189	    -59.66477861	     50.05999157
      0.22000000	      0.00000112	     -0.00000008	     -0.00000012	     -0.64180857	     81.33676432	     17.74489519	    -17.74489519	     80.85015852	     17.02770713	    -17.02770713	     24.23942578	    143.14950446	     77.38893024	     10.41178696	      9.88807184	    -70.65154665	    -30.46139742	      6.52813118	     -2.90476357	     11.49375154	     34.07956047	     31.10116081	     61.79820494	   -104.85890251	     26.93614231	     -1.22621450	     -9.21505752	     16.56097844	    -59.62599416	     50.40101354
      0.24000000	      0.00000109	     -0.00000008	     -0.00000012	     -0.64079350	     81.25461888	     17.75478072	    -17.75478072	     80.75737896	     17.02385561	    -17.02385561	     24.28899730	    143.02069686	     77.30969416	     10.38715500	      9.77556236	    -70.60696646	    -30.37851497	      6.47683995	     -3.00086739	     11.57128825	     34.11354738	     31.07836913	     61.68538943	   -104.78193830	     27.01781008	     -1.29380324	     -9.24092881	     16.51710564	    -59.64188820	     50.44270858
      0.26000000	      0.00000115	     -0.00000008	     -0.00000012	     -0.63899938	     81.16438207	     17.74976219	    -17.74976219	     80.67277413	     17.03083823	    -17.03083823	     24.37699531	    142.79285744	     77.16985275	     10.43022548	      9.57617523	    -70.39651314	    -30.42796983	      6.52274745	     -2.99989208	     11.72018606	     34.00392487	     31.05661520	     61.72940751	   -104.89215009	     27.25878521	     -1.34378336	     -9.28573471	     16.60307028	    -59.74398065	     50.58086722
